# xmcd CD database file
# Copyright (C) 1993-1996 Ti Kan
#
# Track frame offsets:
#	150
#	18297
#	36107
#	54652
#	70220
#	85625
#	99442
#	114545
#	128465
#	141982
#
# Disc length: 2132 seconds
#
# Revision: 1
# Processed by: cddbd v1.4b41PL1 Copyright (c) Steve Scherf et al.
# Submitted via: CDValet v3.01 - Copyright (c) 1997 Greg Leichner
#
DISCID=7c08520a
DTITLE=Various Artist - Super 10
DYEAR=1900
DGENRE=
TTITLE0=Love is Alive 
TTITLE1=She Keeps the Home Fires Burning
TTITLE2=You make me want to make you mine
TTITLE3=I want everyone to cry
TTITLE4=Love don't care (whose heart is breaks)
TTITLE5=Maybe my Baby
TTITLE6=Forty Hour Week (for a livin')
TTITLE7=Operator, Operator
TTITLE8=Drinkin' and Dreamin'
TTITLE9=True Love
EXTD=
EXTT0=
EXTT1=
EXTT2=
EXTT3=
EXTT4=
EXTT5=
EXTT6=
EXTT7=
EXTT8=
EXTT9=
PLAYORDER=
